<svg xmlns="http://www.w3.org/2000/svg" width="14.898" height="8.496" viewBox="0 0 14.898 8.496">
  <g id="down-arrow" transform="translate(-0.438 401.724)">
    <path id="Path_2931" data-name="Path 2931" d="M1.233-401.7a1.087,1.087,0,0,0-.711.595.78.78,0,0,0-.079.423c0,.466-.28.151,3.474,3.912C6.182-394.5,7.3-393.4,7.389-393.355a1.025,1.025,0,0,0,.682.108,1.479,1.479,0,0,0,.315-.108c.09-.049,1.207-1.148,3.472-3.416,3.754-3.76,3.474-3.445,3.474-3.912a.813.813,0,0,0-.082-.428,1.058,1.058,0,0,0-1.431-.5c-.076.038-1.131,1.073-3.023,2.961l-2.909,2.906-2.909-2.906c-1.9-1.9-2.947-2.924-3.023-2.961A1.137,1.137,0,0,0,1.233-401.7Z" transform="translate(0 0)" fill="#ff9500"/>
  </g>
</svg>
