<?xml version="1.0" standalone="no"?>
<!DOCTYPE svg PUBLIC "-//W3C//DTD SVG 20010904//EN"
 "http://www.w3.org/TR/2001/REC-SVG-20010904/DTD/svg10.dtd">
<svg version="1.0" xmlns="http://www.w3.org/2000/svg"
 width="512.000000pt" height="512.000000pt" viewBox="0 0 512.000000 512.000000"
 preserveAspectRatio="xMidYMid meet">

<g transform="translate(0.000000,512.000000) scale(0.100000,-0.100000)"
fill="#FF9500" stroke="none">
<path d="M213 4260 c-81 -16 -144 -65 -186 -144 l-22 -41 0 -1515 0 -1515 22
-41 c30 -56 79 -103 133 -128 l45 -21 2355 0 2355 0 45 21 c54 25 103 72 133
128 l22 41 0 1515 0 1515 -22 41 c-30 56 -79 103 -133 128 l-45 21 -2330 1
c-1282 1 -2349 -2 -2372 -6z m4527 -204 c-8 -7 -474 -357 -1035 -778 -704
-527 -1033 -767 -1061 -776 -53 -15 -115 -15 -168 0 -28 9 -357 249 -1061 776
-561 421 -1027 771 -1035 778 -12 12 314 14 2180 14 1866 0 2192 -2 2180 -14z
m-3475 -910 c572 -429 1065 -792 1095 -807 116 -59 275 -60 394 -4 29 14 527
381 1107 815 l1054 791 3 -685 c1 -377 1 -994 0 -1370 l-3 -685 -555 685
c-305 377 -562 690 -571 695 -68 36 -156 -29 -142 -105 4 -18 214 -286 569
-725 l564 -696 -1110 -3 c-611 -1 -1609 -1 -2220 0 l-1110 3 564 696 c355 439
565 707 569 725 14 74 -65 136 -138 108 -8 -4 -264 -313 -567 -688 -303 -374
-555 -685 -559 -690 -5 -6 -9 584 -9 1363 0 1095 3 1371 13 1365 6 -5 480
-359 1052 -788z"/>
</g>
</svg>
