<svg xmlns="http://www.w3.org/2000/svg" width="512" height="511.754" viewBox="0 0 512 511.754">
  <g id="report-gray" transform="translate(0 511.754)">
    <path id="Path_2931" data-name="Path 2931" d="M427.1-510.9c-22.8,4.5-39.3,28.2-35.2,50.6.7,3.6.8,6.9.4,7.3-2.5,2.3-49.6,37.2-50.7,37.6-.7.3-3.5-.6-6.2-2-16.4-8.2-37.6-4.5-51,8.8a45.291,45.291,0,0,0-10.8,46l1.7,4.8-30.1,30-30,30.1-4.8-1.7a44.2,44.2,0,0,0-21.9-1.7c-6.3,1.2-16.2,5.6-20.8,9.3l-2.8,2.2L143-300.5l-22-11v-4.1c0-28-24.9-50-51.6-45.6a44.986,44.986,0,0,0-37.6,37.6C27-294.7,53.7-268,82.6-272.8c6.8-1.1,16.8-5.5,21.7-9.4l2.8-2.2L129-273.5l22,11v4.1c0,28,24.9,50,51.6,45.6,27.7-4.6,44.7-32.5,35.8-58.6l-1.7-4.8,30.1-30,30-30.1,4.8,1.7c31.3,10.7,64.4-17.1,58.5-49.1-.7-3.6-.8-6.9-.4-7.3,2.5-2.3,49.6-37.2,50.7-37.6.7-.3,3.5.6,6.2,2,11.8,5.9,26,5.8,38.8-.2,17.3-8.1,27.9-28.1,24.8-46.8A45.014,45.014,0,0,0,427.1-510.9Z" fill="#888"/>
    <path id="Path_2932" data-name="Path 2932" d="M398.8-359.9A14.339,14.339,0,0,0,393-354c-2,3.9-2,5.6-2,164V-30H361V-145c0-113.4,0-115.1-2-119a13.4,13.4,0,0,0-6-6c-3.7-1.9-5.8-2-37-2s-33.3.1-37,2a13.4,13.4,0,0,0-6,6c-2,3.9-2,5.6-2,119V-30H241V-85c0-53.2-.1-55.2-2-59a13.4,13.4,0,0,0-6-6c-3.7-1.9-5.8-2-37-2s-33.3.1-37,2a13.4,13.4,0,0,0-6,6c-1.9,3.8-2,5.8-2,59v55H121v-85c0-83.3,0-85.2-2-89a13.4,13.4,0,0,0-6-6c-3.7-1.9-5.8-2-37-2s-33.3.1-37,2a13.4,13.4,0,0,0-6,6c-2,3.8-2,5.7-2,89v85H21.5c-7.6,0-10.4.4-13.5,2A15.784,15.784,0,0,0,0-15,15.784,15.784,0,0,0,8-2c3.9,2,5.3,2,248,2S500.1,0,504-2a15.784,15.784,0,0,0,8-13,15.784,15.784,0,0,0-8-13c-3.1-1.6-5.9-2-13.5-2H481V-190c0-158.5,0-160.1-2-164a13.4,13.4,0,0,0-6-6c-3.7-1.9-5.8-2-37.2-2C404.6-361.9,402.3-361.8,398.8-359.9Z" fill="#888"/>
  </g>
</svg>
