<svg xmlns="http://www.w3.org/2000/svg" width="30.574" height="26.352" viewBox="0 0 30.574 26.352">
  <g id="send_1_" data-name="send (1)" transform="translate(0 476.592)">
    <path id="Path_2932" fill="#FF9500" data-name="Path 2932" d="M2.359-476.551A3.052,3.052,0,0,0,0-473.625c0,.191.322,1.565.872,3.744.484,1.893,1,3.923,1.147,4.5l.263,1.063H7.757c5.088,0,5.482.006,5.679.108a.888.888,0,0,1,0,1.576c-.2.1-.591.108-5.679.108H2.281l-.263,1.057c-.149.585-.663,2.616-1.147,4.509C.322-454.779,0-453.4,0-453.214a3.01,3.01,0,0,0,2.448,2.932,2.945,2.945,0,0,0,1.439-.113c.752-.263,25.015-10.361,25.308-10.534a3.02,3.02,0,0,0,1.379-2.49,3.02,3.02,0,0,0-1.379-2.49c-.293-.173-24.544-10.265-25.314-10.54A3.544,3.544,0,0,0,2.359-476.551Z" transform="translate(0)"/>
  </g>
</svg>
