<svg xmlns="http://www.w3.org/2000/svg" width="247" height="247" viewBox="0 0 247 247">
  <g id="user" transform="translate(22226 24158)">
    <circle id="Ellipse_123" data-name="Ellipse 123" cx="123.5" cy="123.5" r="123.5" transform="translate(-22226 -24158)" fill="#b7b7b7"/>
    <g id="avatar" transform="translate(-22186.99 -23576.703)">
      <path id="Path_2926" data-name="Path 2926" d="M165.028-511.427a21.586,21.586,0,0,0-11.938,5.559c-5.243,4.948-7.412,11.286-7.39,21.729.021,7.833,1.263,13.707,3.979,18.929,3.558,6.885,9.117,10.633,16.844,11.412a22.945,22.945,0,0,0,12.044-1.916,21.258,21.258,0,0,0,9.917-10.086,40.773,40.773,0,0,0,2.737-8.338,58.511,58.511,0,0,0,.126-19.434c-1.642-8.17-6.675-14.17-14-16.718A30.018,30.018,0,0,0,165.028-511.427Zm8.843,6.422c6.927,1.832,10.865,6.759,11.917,14.865a63.654,63.654,0,0,1-.105,12.844c-1.558,9.707-5.5,15.244-12.149,17.076a17.164,17.164,0,0,1-4.611.4c-3.664,0-5.453-.379-7.9-1.642a18.065,18.065,0,0,1-5.769-5.917c-2.548-4.506-3.79-11.054-3.537-18.55.253-7.475,1.684-11.728,5.074-15.16a15.183,15.183,0,0,1,8.233-4.232A27.127,27.127,0,0,1,173.872-505.005Z" transform="translate(-84.472)" fill="#454545"/>
      <path id="Path_2927" data-name="Path 2927" d="M67.818-236.548c-.4.232-1.642.947-2.737,1.621a67.617,67.617,0,0,1-14.949,6.632,13.875,13.875,0,0,0-6.654,3.706c-3.369,3.39-4.759,7.98-4.78,15.771-.021,6.19.547,9.517,1.853,10.738.969.926,5.517,3.2,9.58,4.8,18.36,7.264,41.437,8.233,61.1,2.59,7.138-2.042,15.9-5.9,17.434-7.643,1.516-1.705,2.106-10.4,1.158-16.592-.821-5.264-2.948-9.054-6.338-11.265-1.495-.99-2.8-1.516-6.4-2.632a63.954,63.954,0,0,1-13.475-6.211,12.783,12.783,0,0,0-3.685-1.832,2.99,2.99,0,0,0-2.948,4.232c.948,2,11.012,7.243,18.213,9.5a40.785,40.785,0,0,1,4.148,1.495c2.127,1.053,3.685,3.411,4.422,6.632.295,1.242.358,2.59.358,6.611a54.89,54.89,0,0,1-.211,5.664c-.147.463-.547.779-1.558,1.305-8.233,4.253-19.455,7.222-30.615,8.106a127.027,127.027,0,0,1-18.866-.442,82.308,82.308,0,0,1-25.856-7.454l-1.916-.969-.168-.99c-.084-.568-.168-3.1-.147-5.643.021-5.159.253-6.759,1.326-9.075,1.179-2.527,2.758-3.769,5.917-4.7a66.418,66.418,0,0,0,11.265-4.548c5.264-2.632,7.917-4.316,8.549-5.432A2.956,2.956,0,0,0,67.818-236.548Z" transform="translate(0 -216.892)" fill="#454545"/>
    </g>
  </g>
</svg>
